<svg xmlns="http://www.w3.org/2000/svg" viewBox="0 0 128 128" role="img" aria-label="Dify Knowledge">
  <defs>
    <linearGradient id="bg" x1="0" y1="0" x2="1" y2="1">
      <stop offset="0%" stop-color="#0F766E" />
      <stop offset="100%" stop-color="#2563EB" />
    </linearGradient>
  </defs>
  <rect x="8" y="8" width="112" height="112" rx="28" fill="url(#bg)" />
  <path d="M34 34h36c13.255 0 24 10.745 24 24s-10.745 24-24 24H34z" fill="#FFFFFF" fill-opacity="0.16" />
  <path d="M44 40h24c10.493 0 19 8.507 19 19s-8.507 19-19 19H44z" fill="#FFFFFF" />
  <path d="M52 49h14c5.523 0 10 4.477 10 10s-4.477 10-10 10H52z" fill="#0F766E" />
  <path d="M78 42h10l-14 17 15 27H79L68 66v20H59V42h9v18z" fill="#FFFFFF" />
</svg>
